<svg xmlns="http://www.w3.org/2000/svg" viewBox="0 0 32 32" width="32" height="32">
  <rect width="32" height="32" rx="7" fill="#0a0a0f"/>
  <path d="M22.2 16.8c0-2.5 2-3.7 2.1-3.8-1.1-1.7-2.9-1.9-3.5-1.9-1.5-.2-2.9.9-3.7.9-.8 0-2-.9-3.3-.8-1.7 0-3.3 1-4.1 2.5-1.8 3.1-.5 7.6 1.3 10.1.8 1.2 1.9 2.6 3.2 2.5 1.3-.1 1.8-.8 3.3-.8s2 .8 3.3.8c1.4 0 2.3-1.2 3.1-2.4 1-1.4 1.4-2.8 1.4-2.8C25.3 21.1 22.2 20 22.2 16.8z" fill="#f05138"/>
  <path d="M19.7 9.1c.7-.9 1.2-2.1 1.1-3.3-1 0-2.3.7-3 1.6-.6.8-1.2 2-1 3.2C17.9 10.7 19 10 19.7 9.1z" fill="#f05138"/>
</svg>
